<mxfile host="app.diagrams.net" modified="2024-07-22T13:38:18.844Z" agent="Mozilla/5.0 (Windows NT 10.0; Win64; x64) AppleWebKit/537.36 (KHTML, like Gecko) Chrome/126.0.0.0 Safari/537.36" version="24.7.1" etag="r6_G1_s8jhAzvQLptMHc" type="github">
  <diagram name="第 1 页" id="eDpcz6h91-9oG0KMQit3">
    <mxGraphModel>
      <root>
        <mxCell id="0" />
        <mxCell id="1" parent="0" />
      </root>
    </mxGraphModel>
  </diagram>
</mxfile>
